<?xml version="1.0" encoding="UTF-8" standalone="no"?>
<svg
   xmlns:dc="http://purl.org/dc/elements/1.1/"
   xmlns:cc="http://creativecommons.org/ns#"
   xmlns:rdf="http://www.w3.org/1999/02/22-rdf-syntax-ns#"
   xmlns:svg="http://www.w3.org/2000/svg"
   xmlns="http://www.w3.org/2000/svg"
   xmlns:sodipodi="http://sodipodi.sourceforge.net/DTD/sodipodi-0.dtd"
   xmlns:inkscape="http://www.inkscape.org/namespaces/inkscape"
   height="526.3399"
   width="510.21976"
   xml:space="preserve"
   viewBox="0 0 510.21977 526.3399"
   y="0px"
   x="0px"
   id="Camada_1"
   version="1.1"
   inkscape:version="0.91 r13725"
   sodipodi:docname="lattes-bw-round.svg"><title
     id="title4136">Currículo Lattes Icon</title><sodipodi:namedview
     pagecolor="#ffffff"
     bordercolor="#666666"
     borderopacity="1"
     objecttolerance="10"
     gridtolerance="10"
     guidetolerance="10"
     inkscape:pageopacity="0"
     inkscape:pageshadow="2"
     inkscape:window-width="1440"
     inkscape:window-height="873"
     id="namedview8"
     showgrid="false"
     inkscape:zoom="1"
     inkscape:cx="443.02517"
     inkscape:cy="532.04511"
     inkscape:window-x="0"
     inkscape:window-y="0"
     inkscape:window-maximized="1"
     inkscape:current-layer="Camada_1"
     fit-margin-top="5"
     fit-margin-left="5"
     fit-margin-right="5"
     fit-margin-bottom="5" /><metadata
     id="metadata3657"><rdf:RDF><cc:Work
         rdf:about=""><dc:format>image/svg+xml</dc:format><dc:type
           rdf:resource="http://purl.org/dc/dcmitype/StillImage" /><dc:title>Currículo Lattes Icon</dc:title><dc:creator><cc:Agent><dc:title>Job Diógenes Ribeiro Borges</dc:title></cc:Agent></dc:creator><dc:rights><cc:Agent><dc:title>Job Diógenes Ribeiro Borges by CC 3.0 License</dc:title></cc:Agent></dc:rights><cc:license
           rdf:resource="http://creativecommons.org/licenses/by-sa/3.0/" /></cc:Work><cc:License
         rdf:about="http://creativecommons.org/licenses/by-sa/3.0/"><cc:permits
           rdf:resource="http://creativecommons.org/ns#Reproduction" /><cc:permits
           rdf:resource="http://creativecommons.org/ns#Distribution" /><cc:requires
           rdf:resource="http://creativecommons.org/ns#Notice" /><cc:requires
           rdf:resource="http://creativecommons.org/ns#Attribution" /><cc:permits
           rdf:resource="http://creativecommons.org/ns#DerivativeWorks" /><cc:requires
           rdf:resource="http://creativecommons.org/ns#ShareAlike" /></cc:License></rdf:RDF></metadata><defs
     id="defs3655" /><path
     style="opacity:1;fill:#000000;fill-opacity:1;fill-rule:nonzero;stroke:#000000;stroke-width:3.16639304;stroke-linejoin:round;stroke-miterlimit:4;stroke-dasharray:none;stroke-opacity:1"
     d="M 255.10947,6.5831965 A 248.52663,256.58695 0 0 0 6.5831965,263.17 248.52663,256.58695 0 0 0 255.10947,519.75673 248.52663,256.58695 0 0 0 503.63655,263.17 248.52663,256.58695 0 0 0 255.10947,6.5831965 Z M 385.89504,142.35222 c 20.18522,26.24826 40.49648,42.73299 50.17373,67.07069 34.08912,85.73272 -2.23705,170.24398 -135.06657,228.14733 -33.68161,14.68267 -75.3456,22.32135 -121.55618,34.08706 L 108.51878,287.37313 c 38.52405,7.92094 72.93605,15.82912 105.06129,18.02484 92.28431,6.30763 166.68871,-23.19942 183.92911,-85.09159 6.38771,-22.93188 -4.36018,-43.20771 -11.61414,-77.95416 z"
     id="path4758"
     inkscape:connector-curvature="0" /><g
     id="g4763"
     transform="matrix(0.6332787,0,0,0.6332787,-1.4775437,-55.091024)"><ellipse
       style="opacity:1;fill:#ffffff;fill-opacity:1;stroke:#ffffff;stroke-width:5.00002432;stroke-miterlimit:4;stroke-dasharray:none;stroke-opacity:1"
       id="path4644"
       cx="609.29285"
       cy="64.877556"
       rx="105.72517"
       ry="77.148727"
       transform="matrix(0.8455655,0.5338717,-0.53014336,0.84790802,0,0)" /><path
       style="fill:#ffffff;fill-opacity:1;fill-rule:evenodd;stroke:#ffffff;stroke-width:5;stroke-linecap:butt;stroke-linejoin:round;stroke-miterlimit:4;stroke-dasharray:none;stroke-opacity:1"
       d="m 388.69343,547.77965 -217,-37 c -10.078,-73.31325 -16.02784,-133.15507 -8.94296,-181.13923 25.40039,-172.03084 168.90859,-192.65079 351.41895,-134.22389 25.88952,8.28799 41.78519,19.14645 69.52401,30.36312 -162.75108,-6.29186 -335.74419,-24.48897 -195,322 z"
       id="path4135"
       inkscape:connector-curvature="0" /></g></svg>